PathFileType	4	(X/Y/Z)
DataRate	CameraRate	NumFrames	NumMarkers	Units	OrigDataRate	OrigDataStartFrame	OrigNumFrames	
  120.0	  120.0	    5	     56	     mm	  120.0	      349	    465
Frame#	Time	LASI			RASI			LPSI			RPSI			RTH1			RTH2			RTH3			RLFC			RMFC			LTH1			LTH2			LTH3			LLFC			LMFC			RTB1			RTB2			RTB3			RLMAL			RMMAL			LTB1			LTB2			LTB3			LMMAL			LLMAL			RCAL			RTOE			RMT5			LCAL			LTOE			LMT5			LACR			RACR			CLAV			C7			LASH			LPSH			RASH			RPSH			RUA1			RUA2			RUA3			RLEL			RMEL			LUA1			LUA2			LUA3			LLEL			LMEL			RFAsuperior			RFAradius			RFAulna			LFAsuperior			LFAradius			LFAulna			RHJC			LHJC			
		X1	Y1	Z1	X2	Y2	Z2	X3	Y3	Z3	X4	Y4	Z4	X5	Y5	Z5	X6	Y6	Z6	X7	Y7	Z7	X8	Y8	Z8	X9	Y9	Z9	X10	Y10	Z10	X11	Y11	Z11	X12	Y12	Z12	X13	Y13	Z13	X14	Y14	Z14	X15	Y15	Z15	X16	Y16	Z16	X17	Y17	Z17	X18	Y18	Z18	X19	Y19	Z19	X20	Y20	Z20	X21	Y21	Z21	X22	Y22	Z22	X23	Y23	Z23	X24	Y24	Z24	X25	Y25	Z25	X26	Y26	Z26	X27	Y27	Z27	X28	Y28	Z28	X29	Y29	Z29	X30	Y30	Z30	X31	Y31	Z31	X32	Y32	Z32	X33	Y33	Z33	X34	Y34	Z34	X35	Y35	Z35	X36	Y36	Z36	X37	Y37	Z37	X38	Y38	Z38	X39	Y39	Z39	X40	Y40	Z40	X41	Y41	Z41	X42	Y42	Z42	X43	Y43	Z43	X44	Y44	Z44	X45	Y45	Z45	X46	Y46	Z46	X47	Y47	Z47	X48	Y48	Z48	X49	Y49	Z49	X50	Y50	Z50	X51	Y51	Z51	X52	Y52	Z52	X53	Y53	Z53	X54	Y54	Z54	X55	Y55	Z55	X56	Y56	Z56	

353	2.94167	622.72179	1111.58387	-638.85644	658.49505	1108.09723	-386.67749	465.93855	1141.32623	-532.34022	484.47451	1142.15197	-434.52605	632.79511	877.51739	-327.29758	647.22197	753.46648	-358.14152	561.52938	637.43459	-328.97088	552.52758	556.28460	-329.45084	544.80892	560.98194	-441.69651	546.26563	869.94282	-681.49862	592.24596	763.69418	-657.78036	529.97723	658.87112	-650.96677	517.94741	574.53523	-643.25935	530.28286	569.25287	-529.40744	565.75471	430.27372	-377.73698	506.94561	352.81176	-306.22318	536.42854	233.90330	-362.79074	486.96834	139.57086	-310.59152	499.65707	140.00373	-392.47299	536.29567	432.56581	-588.87854	478.64811	327.81693	-646.39720	516.15917	217.61534	-603.78488	480.05108	141.40780	-565.07973	465.07970	140.27964	-641.38767	417.92087	105.76054	-347.53644	630.88614	57.88644	-392.82819	624.64748	71.18790	-300.39773	404.35964	104.70863	-598.39199	626.70811	53.67489	-576.15824	603.21756	70.55263	-667.49731	513.41212	1558.10598	-662.94536	551.41772	1558.31455	-340.02013	624.84219	1510.61397	-490.92143	503.13790	1588.31950	-496.36919	572.40133	1506.19240	-634.07804	461.47670	1525.18377	-640.63939	611.63866	1515.98239	-366.19939	497.71831	1521.02927	-341.61556	571.47475	1480.78484	-264.96819	523.88553	1428.86624	-254.53427	576.12749	1384.49541	-226.50514	529.25165	1289.06060	-143.40805	525.69606	1240.61966	-201.72307	488.23400	1466.00556	-744.62398	453.80185	1387.79384	-741.18393	509.64100	1397.14452	-789.46964	465.10976	1296.27226	-871.03331	467.50893	1253.82664	-811.91201	615.27262	1313.23133	-145.60552	775.44551	1312.78903	-213.07236	782.22945	1295.05882	-152.65452	551.32553	1324.74411	-874.07596	714.34320	1331.88795	-817.76799	712.11029	1322.02561	-877.09193	605.75418	999.40684	-400.04697	570.21721	1005.75081	-613.55400	
354	2.95000	622.68350	1111.58267	-638.76437	658.47979	1108.10687	-386.66158	465.83117	1141.34322	-532.28188	484.38259	1142.12866	-434.62182	632.80526	877.51560	-327.28948	647.23155	753.46949	-358.13988	561.54922	637.42148	-328.97008	552.54338	556.27582	-329.44686	544.82005	560.97712	-441.68546	546.21976	869.95224	-681.46386	592.20730	763.70409	-657.74032	529.94345	658.87124	-650.95082	517.91742	574.54071	-643.24260	530.26262	569.25373	-529.39968	565.74341	430.27478	-377.74882	506.94855	352.80262	-306.21910	536.41422	233.90118	-362.79882	486.96253	139.56411	-310.59803	499.62797	140.00590	-392.46757	536.27778	432.57160	-588.86964	478.59739	327.82693	-646.36397	516.14780	217.62560	-603.79159	480.03566	141.38247	-565.08345	465.05156	140.29051	-641.37903	417.91317	105.76024	-347.54378	630.87801	57.91046	-392.82675	624.63139	71.18407	-300.40303	404.31373	104.67747	-598.33711	626.68005	53.67985	-576.16338	603.20002	70.56652	-667.49649	513.38714	1558.12856	-662.89603	551.40080	1558.29769	-339.98300	624.82334	1510.61797	-490.88135	503.11936	1588.31787	-496.31344	572.37914	1506.20670	-634.03715	461.44019	1525.19630	-640.58667	611.62100	1515.96503	-366.17288	497.69748	1521.01670	-341.59131	571.44554	1480.76772	-264.94141	523.86899	1428.85712	-254.48415	576.09294	1384.47305	-226.47785	529.22878	1289.04394	-143.39560	525.63171	1240.60809	-201.69223	488.21339	1466.03254	-744.56960	453.74962	1387.81625	-741.14252	509.60546	1397.19697	-789.39693	465.08552	1296.28848	-870.97908	467.49587	1253.84578	-811.86932	615.23166	1313.22186	-145.58497	775.40283	1312.76740	-213.04524	782.18477	1295.03582	-152.61461	551.31132	1324.76708	-874.01958	714.34245	1331.90098	-817.76884	712.09762	1322.04538	-877.04073	605.67051	999.42307	-399.98914	570.23276	1005.73342	-613.51785	
355	2.95833	622.65554	1111.57959	-638.70706	658.46857	1108.11561	-386.65648	465.73546	1141.37202	-532.22950	484.31734	1142.11178	-434.68401	632.82152	877.51622	-327.27677	647.24103	753.46705	-358.14180	561.57105	637.44839	-328.92959	552.55600	556.26672	-329.44224	544.82439	560.97650	-441.67829	546.17873	869.96214	-681.43599	592.15437	763.70268	-657.68842	529.91263	658.87033	-650.92450	517.87786	574.54376	-643.22254	530.25593	569.25397	-529.39503	565.73335	430.27009	-377.75692	506.95514	352.79019	-306.21631	536.40439	233.89503	-362.79515	486.95993	139.56112	-310.60052	499.60193	140.00906	-392.46395	536.26561	432.57681	-588.85099	478.54832	327.83862	-646.33743	516.13479	217.63293	-603.78660	480.02832	141.39879	-565.07610	465.02844	140.30157	-641.37154	417.90885	105.75893	-347.54922	630.86847	57.93201	-392.81243	624.61018	71.16951	-300.41974	404.25949	104.64302	-598.26725	626.65753	53.68784	-576.16628	603.18318	70.57573	-667.49261	513.36866	1558.15167	-662.84771	551.38528	1558.27880	-339.94430	624.80759	1510.61742	-490.84527	503.10868	1588.31463	-496.25652	572.36590	1506.22091	-634.00402	461.41008	1525.21153	-640.54192	611.61171	1515.94544	-366.13137	497.67920	1521.00578	-341.57069	571.42353	1480.75389	-264.90706	523.85189	1428.84273	-254.43823	576.06525	1384.45186	-226.44483	529.20688	1289.02944	-143.37899	525.59241	1240.59330	-201.66710	488.19197	1466.04331	-744.50272	453.69910	1387.83018	-741.10290	509.57813	1397.23939	-789.32648	465.07093	1296.30656	-870.92627	467.49726	1253.87128	-811.82943	615.19113	1313.20859	-145.57375	775.36528	1312.74774	-213.00886	782.14136	1295.01715	-152.56133	551.30322	1324.78985	-873.96341	714.34419	1331.90884	-817.76532	712.08723	1322.07275	-876.98320	605.61165	999.43743	-399.95128	570.22728	1005.72388	-613.49192	
356	2.96667	622.63638	1111.57690	-638.68173	658.46201	1108.12175	-386.66545	465.67125	1141.40465	-532.18519	484.25645	1142.09429	-434.75085	632.84119	877.51993	-327.26554	647.24765	753.45705	-358.15030	561.59350	637.50442	-328.84786	552.56547	556.25977	-329.43632	544.81824	560.97803	-441.66881	546.14319	869.96938	-681.41949	592.09562	763.69198	-657.63879	529.88276	658.86894	-650.89001	517.83265	574.54854	-643.19801	530.27763	569.25053	-529.39294	565.72926	430.26231	-377.75546	506.96536	352.77994	-306.21436	536.39809	233.88546	-362.78536	486.96086	139.56285	-310.59724	499.57961	140.01550	-392.45685	536.25789	432.58143	-588.82866	478.50575	327.84805	-646.31838	516.12243	217.63455	-603.77181	480.03263	141.44204	-565.06490	465.01112	140.30938	-641.36200	417.90974	105.75898	-347.55034	630.85956	57.94588	-392.79589	624.59370	71.15861	-300.43620	404.21188	104.61559	-598.19877	626.64497	53.70021	-576.16443	603.16974	70.57672	-667.49010	513.36003	1558.17038	-662.80356	551.37138	1558.26121	-339.90475	624.79574	1510.61134	-490.81388	503.10481	1588.30956	-496.20131	572.34699	1506.22957	-633.92455	461.39580	1525.22611	-640.50703	611.60910	1515.92820	-366.07943	497.66610	1520.99437	-341.54485	571.40904	1480.74285	-264.86850	523.83473	1428.82698	-254.39909	576.04585	1384.43462	-226.40305	529.18489	1289.01704	-143.35554	525.56987	1240.57239	-201.64235	488.17789	1466.03570	-744.43467	453.66790	1387.85462	-741.06056	509.57117	1397.25646	-789.27458	465.07048	1296.32487	-870.87816	467.49974	1253.90253	-811.78988	615.15348	1313.19264	-145.56111	775.33180	1312.73010	-212.96317	782.09885	1294.99910	-152.49725	551.30224	1324.81126	-873.91065	714.34664	1331.90940	-817.74771	712.08030	1322.11061	-876.91143	605.57015	999.44824	-399.93718	570.21759	1005.71850	-613.48505	
357	2.97500	622.62087	1111.57610	-638.67376	658.46200	1108.12632	-386.68214	465.64051	1141.42920	-532.14634	484.18039	1142.07142	-434.84674	632.85714	877.52450	-327.26115	647.25014	753.44180	-358.16638	561.60443	637.52715	-328.79292	552.57148	556.25715	-329.42982	544.80157	560.98167	-441.65569	546.11442	869.97438	-681.41354	592.04674	763.67853	-657.60509	529.85609	658.86969	-650.85628	517.79226	574.55423	-643.17086	530.31582	569.24353	-529.39008	565.72919	430.25588	-377.74465	506.97312	352.77499	-306.21366	536.39362	233.87660	-362.77958	486.96281	139.56704	-310.59054	499.56342	140.02227	-392.44406	536.25184	432.58469	-588.81137	478.47523	327.85265	-646.30676	516.11385	217.63129	-603.75673	480.04475	141.48090	-565.05750	465.00131	140.31222	-641.35110	417.91336	105.76105	-347.54836	630.85483	57.95140	-392.78927	624.58799	71.15798	-300.43990	404.18901	104.60571	-598.15991	626.64249	53.71264	-576.15941	603.16211	70.57285	-667.49035	513.36302	1558.18101	-662.76586	551.35997	1558.24738	-339.86537	624.78904	1510.60255	-490.78474	503.10614	1588.30447	-496.14985	572.30883	1506.22525	-633.75698	461.40062	1525.23587	-640.47797	611.60698	1515.91742	-366.03062	497.65880	1520.98491	-341.50983	571.39858	1480.73241	-264.82980	523.81879	1428.81330	-254.36536	576.03066	1384.42255	-226.35955	529.15956	1289.00374	-143.33001	525.54909	1240.54646	-201.61477	488.17791	1466.01997	-744.37844	453.66750	1387.88573	-741.02060	509.58870	1397.24742	-789.24896	465.08359	1296.34061	-870.83595	467.49624	1253.93347	-811.75081	615.12122	1313.17516	-145.53829	775.30257	1312.70813	-212.91708	782.05773	1294.97548	-152.42869	551.30753	1324.83058	-873.86245	714.35012	1331.90867	-817.71684	712.08096	1322.15477	-876.83507	605.53652	999.45622	-399.93807	570.22079	1005.71173	-613.49414	
